<mxfile host="app.diagrams.net" modified="2023-05-29T04:22:52.196Z" agent="Mozilla/5.0 (Windows NT 10.0; Win64; x64) AppleWebKit/537.36 (KHTML, like Gecko) Chrome/113.0.0.0 Safari/537.36" etag="pDxA8qrUgWTR9XoxZfrM" version="21.3.5" type="github">
  <diagram name="第 1 页" id="x1ljfz-qSG_obq4z1dJh">
    <mxGraphModel dx="369" dy="754" grid="1" gridSize="10" guides="1" tooltips="1" connect="1" arrows="1" fold="1" page="1" pageScale="1" pageWidth="827" pageHeight="1169" math="0" shadow="0">
      <root>
        <mxCell id="0" />
        <mxCell id="1" parent="0" />
        <mxCell id="LTVYAx_PnS-_SqXySAhT-7" value="" style="edgeStyle=orthogonalEdgeStyle;rounded=0;orthogonalLoop=1;jettySize=auto;html=1;" edge="1" parent="1" source="LTVYAx_PnS-_SqXySAhT-5" target="LTVYAx_PnS-_SqXySAhT-6">
          <mxGeometry relative="1" as="geometry" />
        </mxCell>
        <mxCell id="LTVYAx_PnS-_SqXySAhT-5" value="&lt;ul&gt;&lt;li&gt;Get UserOrigin&lt;/li&gt;&lt;li style=&quot;&quot;&gt;Check Pt Orientation&lt;/li&gt;&lt;li style=&quot;&quot;&gt;Check StructureSet&lt;/li&gt;&lt;li style=&quot;&quot;&gt;Add BODY&amp;nbsp;&lt;/li&gt;&lt;/ul&gt;" style="shape=hexagon;perimeter=hexagonPerimeter2;whiteSpace=wrap;html=1;fixedSize=1;align=left;" vertex="1" parent="1">
          <mxGeometry x="325.25" y="150" width="170" height="80" as="geometry" />
        </mxCell>
        <mxCell id="LTVYAx_PnS-_SqXySAhT-42" value="" style="edgeStyle=orthogonalEdgeStyle;rounded=0;orthogonalLoop=1;jettySize=auto;html=1;" edge="1" parent="1" source="LTVYAx_PnS-_SqXySAhT-6" target="LTVYAx_PnS-_SqXySAhT-41">
          <mxGeometry relative="1" as="geometry" />
        </mxCell>
        <mxCell id="LTVYAx_PnS-_SqXySAhT-6" value="Find Image center X, Y &lt;br&gt;@ z = 0" style="whiteSpace=wrap;html=1;align=center;" vertex="1" parent="1">
          <mxGeometry x="337.75" y="270" width="145" height="60" as="geometry" />
        </mxCell>
        <mxCell id="LTVYAx_PnS-_SqXySAhT-11" value="" style="strokeWidth=2;html=1;shape=mxgraph.flowchart.annotation_2;align=left;labelPosition=right;pointerEvents=1;rotation=90;" vertex="1" parent="1">
          <mxGeometry x="354.32" y="322.81" width="111.87" height="306" as="geometry" />
        </mxCell>
        <mxCell id="LTVYAx_PnS-_SqXySAhT-20" value="" style="edgeStyle=orthogonalEdgeStyle;rounded=0;orthogonalLoop=1;jettySize=auto;html=1;" edge="1" parent="1" source="LTVYAx_PnS-_SqXySAhT-14" target="LTVYAx_PnS-_SqXySAhT-19">
          <mxGeometry relative="1" as="geometry" />
        </mxCell>
        <mxCell id="LTVYAx_PnS-_SqXySAhT-14" value="Scan y_line up &lt;br&gt;from +Y to 0" style="rounded=0;whiteSpace=wrap;html=1;" vertex="1" parent="1">
          <mxGeometry x="199" y="520" width="110" height="60" as="geometry" />
        </mxCell>
        <mxCell id="LTVYAx_PnS-_SqXySAhT-16" value="chkBrain = true" style="text;whiteSpace=wrap;html=1;" vertex="1" parent="1">
          <mxGeometry x="569" y="486" width="110" height="20" as="geometry" />
        </mxCell>
        <mxCell id="LTVYAx_PnS-_SqXySAhT-17" value="chkBrain = false" style="text;whiteSpace=wrap;html=1;align=right;" vertex="1" parent="1">
          <mxGeometry x="149" y="486" width="100" height="20" as="geometry" />
        </mxCell>
        <mxCell id="LTVYAx_PnS-_SqXySAhT-27" value="" style="edgeStyle=orthogonalEdgeStyle;rounded=0;orthogonalLoop=1;jettySize=auto;html=1;" edge="1" parent="1" source="LTVYAx_PnS-_SqXySAhT-18" target="LTVYAx_PnS-_SqXySAhT-25">
          <mxGeometry relative="1" as="geometry" />
        </mxCell>
        <mxCell id="LTVYAx_PnS-_SqXySAhT-18" value="Scan y_line up &lt;br&gt;from &lt;b&gt;BrainBorder1&lt;/b&gt; to 0" style="rounded=0;whiteSpace=wrap;html=1;" vertex="1" parent="1">
          <mxGeometry x="499" y="520" width="140" height="60" as="geometry" />
        </mxCell>
        <mxCell id="LTVYAx_PnS-_SqXySAhT-29" value="" style="edgeStyle=orthogonalEdgeStyle;rounded=0;orthogonalLoop=1;jettySize=auto;html=1;" edge="1" parent="1" source="LTVYAx_PnS-_SqXySAhT-19" target="LTVYAx_PnS-_SqXySAhT-28">
          <mxGeometry relative="1" as="geometry" />
        </mxCell>
        <mxCell id="LTVYAx_PnS-_SqXySAhT-19" value="Get&amp;nbsp;&lt;br&gt;sum += Math.Abs(x.Value - (-450))" style="rounded=0;whiteSpace=wrap;html=1;" vertex="1" parent="1">
          <mxGeometry x="155" y="620" width="197.18" height="60" as="geometry" />
        </mxCell>
        <mxCell id="LTVYAx_PnS-_SqXySAhT-25" value="Get&amp;nbsp;&lt;br&gt;sum += Math.Abs(x.Value - (-450))" style="rounded=0;whiteSpace=wrap;html=1;" vertex="1" parent="1">
          <mxGeometry x="471.5" y="620" width="195" height="60" as="geometry" />
        </mxCell>
        <mxCell id="LTVYAx_PnS-_SqXySAhT-28" value="Couch = FindHighestSlope(XProfile)" style="whiteSpace=wrap;html=1;rounded=0;" vertex="1" parent="1">
          <mxGeometry x="155" y="720" width="198" height="60" as="geometry" />
        </mxCell>
        <mxCell id="LTVYAx_PnS-_SqXySAhT-30" value="Find sum minimum locationY" style="text;whiteSpace=wrap;html=1;align=left;" vertex="1" parent="1">
          <mxGeometry x="260" y="680" width="120" height="40" as="geometry" />
        </mxCell>
        <mxCell id="LTVYAx_PnS-_SqXySAhT-31" value="" style="strokeWidth=2;html=1;shape=mxgraph.flowchart.annotation_2;align=left;labelPosition=right;pointerEvents=1;rotation=-90;" vertex="1" parent="1">
          <mxGeometry x="381.09" y="654.09" width="54.05" height="306" as="geometry" />
        </mxCell>
        <mxCell id="LTVYAx_PnS-_SqXySAhT-35" value="" style="endArrow=none;html=1;rounded=0;fontSize=12;strokeWidth=2;" edge="1" parent="1">
          <mxGeometry width="50" height="50" relative="1" as="geometry">
            <mxPoint x="561" y="780" as="sourcePoint" />
            <mxPoint x="561" y="680" as="targetPoint" />
          </mxGeometry>
        </mxCell>
        <mxCell id="LTVYAx_PnS-_SqXySAhT-44" value="" style="edgeStyle=orthogonalEdgeStyle;rounded=0;orthogonalLoop=1;jettySize=auto;html=1;" edge="1" parent="1" source="LTVYAx_PnS-_SqXySAhT-37" target="LTVYAx_PnS-_SqXySAhT-43">
          <mxGeometry relative="1" as="geometry" />
        </mxCell>
        <mxCell id="LTVYAx_PnS-_SqXySAhT-37" value="&lt;ul&gt;&lt;li&gt;(Point) Couch1, 2, 3, 4&lt;/li&gt;&lt;li&gt;(Point)&amp;nbsp;Brn1, 2, 3, 4&amp;nbsp;&lt;/li&gt;&lt;/ul&gt;" style="rounded=0;whiteSpace=wrap;html=1;align=left;" vertex="1" parent="1">
          <mxGeometry x="322.28" y="820" width="175.94" height="60" as="geometry" />
        </mxCell>
        <mxCell id="LTVYAx_PnS-_SqXySAhT-41" value="&lt;span style=&quot;color: rgb(0, 0, 0); font-family: Helvetica; font-size: 12px; font-style: normal; font-variant-ligatures: normal; font-variant-caps: normal; font-weight: 400; letter-spacing: normal; orphans: 2; text-align: left; text-indent: 0px; text-transform: none; widows: 2; word-spacing: 0px; -webkit-text-stroke-width: 0px; background-color: rgb(251, 251, 251); text-decoration-thickness: initial; text-decoration-style: initial; text-decoration-color: initial; float: none; display: inline !important;&quot;&gt;If this image FOV &amp;lt; 50cm&lt;/span&gt;&lt;br style=&quot;border-color: var(--border-color); color: rgb(0, 0, 0); font-family: Helvetica; font-size: 12px; font-style: normal; font-variant-ligatures: normal; font-variant-caps: normal; font-weight: 400; letter-spacing: normal; orphans: 2; text-align: left; text-indent: 0px; text-transform: none; widows: 2; word-spacing: 0px; -webkit-text-stroke-width: 0px; background-color: rgb(251, 251, 251); text-decoration-thickness: initial; text-decoration-style: initial; text-decoration-color: initial;&quot;&gt;&lt;span style=&quot;color: rgb(0, 0, 0); font-family: Helvetica; font-size: 12px; font-style: normal; font-variant-ligatures: normal; font-variant-caps: normal; font-weight: 400; letter-spacing: normal; orphans: 2; text-align: left; text-indent: 0px; text-transform: none; widows: 2; word-spacing: 0px; -webkit-text-stroke-width: 0px; background-color: rgb(251, 251, 251); text-decoration-thickness: initial; text-decoration-style: initial; text-decoration-color: initial; float: none; display: inline !important;&quot;&gt;(the couch show only one line )&lt;/span&gt;" style="rhombus;whiteSpace=wrap;html=1;" vertex="1" parent="1">
          <mxGeometry x="313.65999999999997" y="360" width="193.19" height="90" as="geometry" />
        </mxCell>
        <mxCell id="LTVYAx_PnS-_SqXySAhT-43" value="if (Brn != -1000 &amp;amp;&amp;amp; Brn &amp;lt; -600)&amp;nbsp; chkBrain2 -= true" style="rhombus;whiteSpace=wrap;html=1;align=center;rounded=0;verticalAlign=middle;" vertex="1" parent="1">
          <mxGeometry x="305.38" y="910" width="209.75" height="80" as="geometry" />
        </mxCell>
      </root>
    </mxGraphModel>
  </diagram>
</mxfile>
